<?xml version="1.0" encoding="UTF-8" standalone="no"?><!-- Generator: Gravit.io --><svg xmlns="http://www.w3.org/2000/svg" xmlns:xlink="http://www.w3.org/1999/xlink" style="isolation:isolate" viewBox="0 0 512 512" width="512pt" height="512pt"><defs><clipPath id="_clipPath_SJddwk2VXcq2TCpKZdjMbW0gG4VGdmbs"><rect width="512" height="512"/></clipPath></defs><g clip-path="url(#_clipPath_SJddwk2VXcq2TCpKZdjMbW0gG4VGdmbs)"><rect x="0" y="0" width="512" height="512" transform="matrix(1,0,0,1,0,0)" fill="rgb(46,161,255)"/><path d=" M 256 125.468 C 212.521 125.468 174.691 155.68 164.224 197.213 C 138.64 201.011 118.325 221.421 114.337 247.931 C 85.55 257.832 66.2 284.89 66.136 315.333 C 66.136 354.54 98.128 386.532 137.335 386.532 L 374.665 386.532 C 413.872 386.532 445.864 354.54 445.864 315.333 C 445.864 294.02 436.419 274.085 420.09 260.628 C 421.491 255.169 422.131 249.592 422.131 244.133 C 422.131 200.939 383.921 165.696 338.876 174.05 C 322.095 144.035 290.388 125.448 256 125.468 Z  M 209.084 260.046 L 209.084 260.046 L 209.084 263.729 L 201.013 263.729 L 201.013 260.046 L 201.013 260.046 Q 201.013 257.942 199.867 256.43 L 199.867 256.43 L 199.867 256.43 Q 198.721 254.917 197.126 254.917 L 197.126 254.917 L 149.293 254.917 L 149.293 254.917 Q 147.699 254.917 146.553 256.43 L 146.553 256.43 L 146.553 256.43 Q 145.407 257.942 145.407 260.046 L 145.407 260.046 L 145.407 281.219 L 145.407 281.219 Q 145.407 283.324 146.553 284.77 L 146.553 284.77 L 146.553 284.77 Q 147.699 286.217 149.293 286.217 L 149.293 286.217 L 197.126 286.217 L 197.126 286.217 Q 202.109 286.217 205.597 290.82 L 205.597 290.82 L 205.597 290.82 Q 209.084 295.422 209.084 301.998 L 209.084 301.998 L 209.084 323.171 L 209.084 323.171 Q 209.084 329.747 205.597 334.35 L 205.597 334.35 L 205.597 334.35 Q 202.109 338.952 197.126 338.952 L 197.126 338.952 L 149.293 338.952 L 149.293 338.952 Q 144.31 338.952 140.823 334.35 L 140.823 334.35 L 140.823 334.35 Q 137.335 329.747 137.335 323.171 L 137.335 323.171 L 137.335 319.489 L 145.407 319.489 L 145.407 323.171 L 145.407 323.171 Q 145.407 325.275 146.553 326.788 L 146.553 326.788 L 146.553 326.788 Q 147.699 328.3 149.293 328.3 L 149.293 328.3 L 197.126 328.3 L 197.126 328.3 Q 198.721 328.3 199.867 326.788 L 199.867 326.788 L 199.867 326.788 Q 201.013 325.275 201.013 323.171 L 201.013 323.171 L 201.013 301.998 L 201.013 301.998 Q 201.013 299.894 199.867 298.447 L 199.867 298.447 L 199.867 298.447 Q 198.721 297.001 197.126 297.001 L 197.126 297.001 L 149.293 297.001 L 149.293 297.001 Q 144.31 297.001 140.823 292.398 L 140.823 292.398 L 140.823 292.398 Q 137.335 287.795 137.335 281.219 L 137.335 281.219 L 137.335 260.046 L 137.335 260.046 Q 137.335 253.471 140.823 248.868 L 140.823 248.868 L 140.823 248.868 Q 144.31 244.265 149.293 244.265 L 149.293 244.265 L 197.126 244.265 L 197.126 244.265 Q 202.109 244.265 205.597 248.868 L 205.597 248.868 L 205.597 248.868 Q 209.084 253.471 209.084 260.046 L 209.084 260.046 Z  M 230.809 244.265 L 260.605 291.083 L 290.401 244.265 L 301.462 244.265 L 301.462 338.952 L 293.39 338.952 L 293.39 256.364 L 260.605 307.784 L 227.819 256.364 L 227.819 338.952 L 219.747 338.952 L 219.747 244.265 L 230.809 244.265 L 230.809 244.265 Z  M 320.396 338.952 L 312.324 338.952 L 312.324 244.265 L 320.396 244.265 L 320.396 338.952 L 320.396 338.952 Z  M 405.997 338.952 L 334.248 338.952 L 334.248 244.133 L 342.319 244.133 L 342.319 328.3 L 405.997 328.3 L 405.997 338.952 L 405.997 338.952 Z " fill-rule="evenodd" fill="rgb(255,255,255)"/></g></svg>