<svg viewBox="0 0 1080 1080" style="isolation:isolate;" preserveAspectRatio="xMidYMax meet" width="1080" height="1080">
  <g id="background">
    <rect x="0" y="0" width="1080" height="1080" transform="matrix(1,0,0,1,0,0)" fill="rgb(170,134,122)" />
  </g>
  <g id="txt">
    <path d=" M 456.38 237.72 C 453.57 238.7 449.52 240.89 447.38 242.59 C 445.25 244.3 442 247.67 440.17 250.09 C 438.34 252.52 436.14 256.97 435.29 260 C 434.18 263.9 433.92 267.53 434.36 272.5 C 434.73 276.56 435.98 281.6 437.34 284.5 C 438.63 287.25 441.48 291.3 443.67 293.5 C 445.86 295.7 449.86 298.59 452.57 299.92 C 456.21 301.7 459.72 302.45 466 302.79 C 471.88 303.11 476.2 302.78 480 301.71 C 483.02 300.86 487.52 298.65 490 296.8 C 492.47 294.95 495.99 291.2 497.81 288.47 C 499.62 285.74 501.58 281.7 502.16 279.5 C 502.73 277.3 503.18 272.12 503.14 268 C 503.1 261.79 502.58 259.46 500.14 254.5 C 498.52 251.2 495.46 246.96 493.35 245.07 C 491.23 243.19 487.02 240.51 484 239.13 C 479.82 237.21 476.46 236.53 470 236.28 C 463.76 236.04 460.14 236.42 456.38 237.72 L 456.38 237.72 Z  M 417.5 203.86 C 415.3 204.86 412.04 207.32 410.25 209.34 C 408.46 211.35 406.28 214.69 405.41 216.75 C 404.53 218.81 403.52 224.22 403.16 228.76 L 402.5 237.01 L 394 237 L 394 249 L 403 249 L 403 302 L 416 302 L 416 249 L 427.5 248.5 L 428 237 L 416 237 C 416 227.34 416.68 223.58 417.75 221.36 C 418.71 219.36 420.85 217.06 422.5 216.25 C 424.31 215.36 427.38 214.92 430.25 215.14 L 435 215.5 C 435 203.58 434.79 202.95 432.75 202.51 C 431.51 202.25 428.47 202.03 426 202.04 C 423.52 202.04 419.7 202.86 417.5 203.86 L 417.5 203.86 Z  M 607.32 205.25 C 607.66 206.49 616.62 229 627.22 255.28 C 641.58 290.88 646.88 302.99 648 302.77 C 648.95 302.59 655.43 287.83 665.68 262.49 L 681.85 222.5 C 684.78 229.47 692.12 247.6 700.06 267.29 C 710.79 293.88 714.89 303 716 302.77 C 716.95 302.58 724.67 284.66 737.23 253.48 C 748.08 226.54 756.97 204.16 756.98 203.75 C 756.99 203.34 753.96 203 750.25 202.99 L 743.5 202.98 C 723.35 254.24 717.05 269.16 716.5 269.21 C 715.95 269.27 709.42 254.37 702 236.12 L 688.5 202.93 L 675.5 202.96 C 654.57 254.95 648.27 270.04 648 270.04 C 647.72 270.04 641.42 254.95 634 236.5 L 620.5 202.96 C 606.92 203 606.72 203.07 607.32 205.25 L 607.32 205.25 Z  M 274.96 212.63 C 273.77 214.08 272.83 216.45 272.87 217.88 C 272.91 219.32 273.97 221.5 275.22 222.73 C 276.48 223.95 278.62 224.98 280 225.01 C 281.37 225.04 283.74 224.15 285.25 223.03 C 287.26 221.55 288.01 220.12 288.02 217.75 C 288.03 215.88 287.19 213.55 286.02 212.25 C 284.67 210.75 282.86 210 280.57 210 C 278.07 210 276.54 210.72 274.96 212.63 L 274.96 212.63 Z  M 312.25 238.45 C 308.29 240.37 306.51 241.98 305 245 C 303.9 247.2 303 250.8 303 253 C 303 255.2 303.64 258.24 304.42 259.75 C 305.2 261.26 307.56 264.15 309.67 266.16 C 311.78 268.17 317.44 272.11 322.25 274.91 C 327.06 277.71 331.45 280.9 332 282 C 332.55 283.1 333 284.9 333 286 C 333 287.1 331.76 288.94 330.25 290.1 C 328.08 291.76 326.45 292.11 322.5 291.8 C 319.54 291.56 314.65 290.01 310.5 287.99 C 306.65 286.12 303.16 284.46 302.75 284.29 C 302.34 284.13 301.98 287.04 301.96 290.75 L 301.93 297.5 C 310.92 301.55 315.03 302.41 321 302.77 C 326.69 303.1 330.82 302.82 333.5 301.93 C 335.7 301.19 338.81 299.44 340.42 298.04 C 342.02 296.65 343.93 294.04 344.67 292.25 C 345.4 290.46 345.99 286.64 345.98 283.75 C 345.97 278.68 345.77 278.31 340.23 272.96 C 337.08 269.92 331.8 265.88 328.5 263.98 C 325.2 262.09 321.04 259.29 319.25 257.77 C 317.46 256.25 316 254.1 316 253 C 316 251.9 317.02 250.05 318.26 248.89 C 320.2 247.08 321.3 246.87 326.01 247.4 C 329.03 247.74 333.97 249.15 337 250.54 C 340.02 251.92 342.61 253.04 342.75 253.03 C 342.89 253.01 343 250.3 343 247 L 343 241 C 335.02 237.34 330.94 236.53 325.5 236.27 C 318.51 235.94 316.84 236.22 312.25 238.45 L 312.25 238.45 Z  M 74 204.25 C 74 204.94 82.89 227.46 93.75 254.31 C 108 289.51 113.9 303.03 114.93 302.81 C 115.78 302.63 122.89 286.37 132.43 262.77 C 141.27 240.92 148.77 223.37 149.09 223.77 C 149.42 224.17 156.84 242.19 165.59 263.81 C 176.96 291.9 181.9 303.03 182.92 302.81 C 183.76 302.63 192.21 282.95 203.66 254.5 C 214.29 228.1 223.21 205.71 223.49 204.75 C 223.94 203.21 223.2 203 217.25 202.97 L 210.5 202.94 C 195.16 241.35 189.03 256.77 186.97 262 L 183.23 271.5 C 181 266.07 174.76 250.66 167.92 233.74 L 155.5 202.98 L 142 203 C 121.46 254.91 115.16 269.98 114.75 269.99 C 114.34 269.99 108.04 254.93 100.75 236.51 L 87.5 203.02 C 76.01 203 74 203.37 74 204.25 L 74 204.25 Z  M 543.5 238.4 C 541.3 239.71 537.81 243.19 535.74 246.14 L 531.97 251.5 L 532 237 L 519 237 L 519 302 L 532 302 C 532.04 265.38 532.31 261.92 533.85 258.5 C 534.84 256.3 537.08 253.26 538.83 251.75 C 540.57 250.24 543.46 248.73 545.25 248.4 C 547.51 247.98 549.8 248.44 552.75 249.9 C 555.09 251.05 557.22 252.45 557.5 253 C 557.77 253.55 558.45 254 559 254 C 559.55 254 561.35 251.75 563 249 C 565.89 244.18 565.94 243.92 564.25 241.89 C 563.29 240.74 560.81 238.94 558.75 237.89 C 556.69 236.85 553.31 236 551.25 236.01 C 549.1 236.01 545.79 237.04 543.5 238.4 L 543.5 238.4 Z  M 785.44 237.72 C 782.66 238.7 778.61 240.71 776.44 242.2 C 774.27 243.68 771.56 246.15 770.4 247.7 C 769.25 249.24 767.22 252.52 765.9 255 C 763.81 258.91 763.51 260.81 763.54 269.5 C 763.58 277.98 763.95 280.26 766.01 284.5 C 767.34 287.25 770.47 291.54 772.96 294.03 C 775.87 296.93 779.66 299.4 783.5 300.88 C 788.61 302.84 790.91 303.13 799 302.83 C 806.74 302.53 809.52 301.97 814 299.82 C 817.02 298.36 821.27 295.22 823.44 292.83 C 825.61 290.45 828.31 286.47 829.44 284 C 831.08 280.41 831.5 277.48 831.5 269.5 C 831.5 261.54 831.08 258.58 829.45 255 C 828.32 252.52 825.39 248.5 822.95 246.05 C 820.5 243.6 816.02 240.48 813 239.1 C 808.84 237.22 805.42 236.53 799 236.28 C 792.74 236.04 789.17 236.42 785.44 237.72 L 785.44 237.72 Z  M 873.06 237.77 C 871.16 238.72 867.85 241.75 865.7 244.5 C 863.54 247.25 861.38 249.61 860.89 249.75 C 860.4 249.89 859.89 247.05 859.76 243.45 L 859.52 236.9 L 847.5 237.5 L 847 302 L 860 302 C 860.51 263.45 860.64 262.26 863.01 257.59 C 864.38 254.89 866.85 251.74 868.5 250.59 C 870.34 249.31 873.07 248.5 875.57 248.5 C 878.34 248.5 881.07 249.41 884.07 251.33 C 886.51 252.89 888.78 253.79 889.12 253.33 C 889.46 252.88 890.92 250.47 892.37 248 L 895 243.5 C 891.51 240.1 888.81 238.41 886.75 237.56 C 884.69 236.7 881.54 236.01 879.75 236.02 C 877.96 236.04 874.95 236.82 873.06 237.77 L 873.06 237.77 Z  M 926 238.44 C 923.52 239.73 920.6 241.73 919.5 242.87 C 918.4 244.02 917.16 244.75 916.75 244.48 C 916.34 244.22 916 242.42 916 240.5 L 916 237 L 903.5 237.5 L 903 302 L 916 302 L 915.96 255.5 C 921.03 250.56 923.74 248.65 925.25 248.06 C 926.76 247.48 929.91 247 932.25 246.99 C 934.59 246.99 937.51 247.66 938.75 248.49 C 939.99 249.32 941.67 251.35 942.5 253 C 943.7 255.41 944 260.56 944 279 L 944 302 L 957 302 L 956.96 255.5 C 961.25 251.41 963.96 249.5 965.75 248.61 C 967.54 247.73 970.46 247 972.25 247 C 974.04 247.01 976.96 247.91 978.75 249 C 980.54 250.1 982.67 252.57 983.5 254.5 C 984.68 257.26 985 262.67 985 280 L 985 302 L 998 302 C 997.52 253.07 997.37 251.25 995.35 247.5 C 994.16 245.3 992.14 242.51 990.85 241.31 C 989.56 240.1 986.81 238.41 984.75 237.56 C 982.69 236.7 978.86 236.01 976.25 236.02 C 973.64 236.03 969.47 236.96 967 238.08 C 964.52 239.19 960.85 241.77 958.83 243.8 L 955.16 247.5 C 950 241.44 946.7 238.86 944.5 237.86 C 942.3 236.86 938.25 236.05 935.5 236.07 C 932.24 236.08 928.94 236.91 926 238.44 L 926 238.44 Z  M 274 269.5 L 274 302 L 287 302 L 287 237 L 274 237 L 274 269.5 L 274 269.5 Z  M 464 247.9 C 462.07 248.27 458.92 249.48 457 250.59 C 455.07 251.7 452.47 254.16 451.2 256.06 C 449.94 257.95 448.43 261.3 447.85 263.5 C 447.27 265.72 447.1 269.73 447.48 272.5 C 447.86 275.25 449.03 279.19 450.09 281.25 C 451.14 283.31 453.46 286.07 455.25 287.38 C 457.04 288.68 460.3 290.32 462.5 291 C 465 291.78 468.38 292 471.5 291.57 C 474.25 291.19 478.41 289.78 480.75 288.44 C 483.86 286.66 485.69 284.59 487.57 280.75 C 489.74 276.31 490.09 274.4 489.82 268.34 C 489.55 262.3 489.03 260.52 486.5 256.9 C 484.73 254.38 481.66 251.71 479 250.4 C 476.52 249.17 472.92 247.96 471 247.7 C 469.07 247.45 465.92 247.54 464 247.9 L 464 247.9 Z  M 792.5 247.9 C 790.85 248.28 788.05 249.49 786.28 250.59 C 784.52 251.7 781.68 254.37 779.99 256.55 C 777.61 259.6 776.77 261.87 776.31 266.5 C 775.9 270.65 776.21 274.04 777.31 277.5 C 778.36 280.81 780.26 283.77 782.95 286.25 C 785.26 288.39 788.83 290.47 791.25 291.1 C 793.66 291.72 797.66 291.91 800.5 291.52 C 803.25 291.14 806.62 290.25 808 289.54 C 809.37 288.83 811.96 286.62 813.75 284.63 C 815.54 282.63 817.45 279.31 817.99 277.25 C 818.54 275.19 818.99 271.47 818.98 269 C 818.98 266.28 817.99 262.42 816.49 259.25 C 814.87 255.84 812.68 253.14 810.25 251.55 C 808.19 250.2 804.47 248.64 802 248.07 C 799.52 247.51 797.05 247.08 796.5 247.13 C 795.95 247.17 794.15 247.52 792.5 247.9 L 792.5 247.9 Z " fill-rule="evenodd" fill="rgb(253,181,141)" />
  </g>
  <g id="shadow" opacity="0.4">
    <line x1="248" y1="823" x2="831.5" y2="822" stroke-width="14" stroke="rgb(0,0,0)" stroke-linejoin="round" stroke-linecap="round" stroke-miterlimit="3" />
  </g>
  <path id="wormstraight" fill="none" stroke-width="79" stroke="rgb(253,181,141)" stroke-linejoin="round" stroke-linecap="round" stroke-miterlimit="3">
    <animate 
             attributeName="d" 
             dur="2000ms" 
             repeatCount="indefinite"
             values="M 280.57 776 Q 355 776 403 776 C 451 776 451 776 540 776 C 629 776 629 776 677.5 776 Q 726 776 799 776;

                     M 400.57 776 Q 415 776 463 776 C 511 776 451 656 540 656 C 629 656 569 776 617.5 776 Q 666 776 679 776;
                     
                     M 280.57 776 Q 355 776 403 776 C 451 776 451 776 540 776 C 629 776 629 776 677.5 776 Q 726 776 799 776;"/>
  </path>
  
  <g id="facestraight" transform="translate(-120 0)">
    <circle cx="787" cy="764" r="5" fill="rgb(71,71,76)" />
    <circle cx="807" cy="764" r="5" fill="rgb(71,71,76)" />
    <path d=" M 787 780 Q 792.001 784 797 784 Q 801.999 784 807 780" fill="none" stroke-width="7" stroke="rgb(231,231,231)" stroke-linejoin="round" stroke-linecap="round" stroke-miterlimit="3" />
    <animateTransform attributeName="transform" attributeType="XML" dur="2s" keyTimes="0;0.5;1" repeatCount="indefinite" type="translate" values="0;-120;0" calcMode="linear"></animateTransform>
  </g>
</svg>